<svg width="820" height="540" viewBox="0 0 820 540" fill="none" xmlns="http://www.w3.org/2000/svg">
<g style="mix-blend-mode:overlay">
<path opacity="0.0526316" d="M151.966 166.922L482.157 -6.25858C482.157 -6.25858 509.908 185.721 600.103 238.203C736.517 317.579 963.655 47.5254 963.655 47.5254" stroke="white" stroke-width="4"/>
<path opacity="0.105263" d="M129.292 151.773L471.213 2.23423C471.213 2.23423 485.657 195.745 572.15 254.463C702.966 343.273 948.617 89.8153 948.617 89.8153" stroke="white" stroke-width="4"/>
<path opacity="0.157895" d="M107.297 134.969L459.256 9.86288C459.256 9.86288 460.314 203.982 542.673 268.677C667.237 366.525 930.193 130.93 930.193 130.93" stroke="white" stroke-width="4"/>
<path opacity="0.210526" d="M86.0962 116.555L446.349 16.5519C446.349 16.5519 434.004 210.355 511.817 280.734C629.505 387.181 908.469 170.628 908.469 170.628" stroke="white" stroke-width="4"/>
<path opacity="0.263158" d="M65.7992 96.5926L432.556 22.2401C432.556 22.2401 406.858 214.802 479.731 290.547C589.949 405.109 883.544 208.682 883.544 208.682" stroke="white" stroke-width="4"/>
<path opacity="0.315789" d="M46.5128 75.1481L417.948 26.8645C417.948 26.8645 379.009 217.266 446.573 298.03C548.76 420.182 855.537 244.868 855.537 244.868" stroke="white" stroke-width="4"/>
<path opacity="0.368421" d="M28.3378 52.2974L402.6 30.3717C402.6 30.3717 350.595 217.704 412.503 303.114C506.138 432.294 824.58 278.973 824.58 278.973" stroke="white" stroke-width="4"/>
<path opacity="0.421053" d="M11.3674 28.1201L386.586 32.7099C386.586 32.7099 321.754 216.076 377.687 305.737C462.284 441.345 790.817 310.79 790.817 310.79" stroke="white" stroke-width="4"/>
<path opacity="0.473684" d="M-4.30466 2.70284L369.994 33.8329C369.994 33.8329 292.633 212.356 342.299 305.849C417.418 447.253 754.416 340.124 754.416 340.124" stroke="white" stroke-width="4"/>
<path opacity="0.526316" d="M-18.5991 -23.8591L352.903 33.7035C352.903 33.7035 263.373 206.529 306.509 303.415C371.752 449.952 715.546 366.794 715.546 366.794" stroke="white" stroke-width="4"/>
<path opacity="0.578947" d="M-31.4378 -51.4668L335.402 32.2878C335.402 32.2878 234.12 198.586 270.495 298.41C325.51 449.39 674.399 390.627 674.399 390.627" stroke="white" stroke-width="4"/>
<path opacity="0.631579" d="M-42.7515 -80.0179L317.58 29.5566C317.58 29.5566 205.022 188.53 234.434 290.82C278.92 445.528 631.173 411.465 631.173 411.465" stroke="white" stroke-width="4"/>
<path opacity="0.684211" d="M-52.4779 -109.404L299.53 25.4886C299.53 25.4886 176.222 176.373 198.506 280.642C232.208 438.345 586.079 429.164 586.079 429.164" stroke="white" stroke-width="4"/>
<path opacity="0.736842" d="M-60.5624 -139.51L281.344 20.0707C281.344 20.0707 147.867 162.141 162.888 267.892C185.606 427.837 539.339 443.597 539.339 443.597" stroke="white" stroke-width="4"/>
<path opacity="0.789474" d="M-66.9607 -170.221L263.114 13.2937C263.114 13.2937 120.096 145.864 127.756 252.592C139.341 414.014 491.18 454.649 491.18 454.649" stroke="white" stroke-width="4"/>
<path opacity="0.842105" d="M-71.631 -201.419L244.938 5.15446C244.938 5.15446 93.0539 127.586 93.2895 234.778C93.6458 396.901 441.843 462.223 441.843 462.223" stroke="white" stroke-width="4"/>
<path opacity="0.894737" d="M-74.5468 -232.98L226.907 -4.34037C226.907 -4.34037 66.8745 107.361 59.6582 214.5C48.7439 376.542 391.57 466.24 391.57 466.24" stroke="white" stroke-width="4"/>
<path opacity="0.947368" d="M-75.6852 -264.781L209.117 -15.1806C209.117 -15.1806 41.6931 85.2489 27.0333 191.816C4.86099 352.994 340.611 466.636 340.611 466.636" stroke="white" stroke-width="4"/>
<path d="M-75.0347 -296.698L191.66 -27.3477C191.66 -27.3477 17.6375 61.3223 -4.42129 166.801C-37.7842 326.332 289.219 463.365 289.219 463.365" stroke="white" stroke-width="4"/>
</g>
</svg>
