<svg width="540" height="364" viewBox="0 0 540 364" fill="none" xmlns="http://www.w3.org/2000/svg">
<g style="mix-blend-mode:overlay">
<path opacity="0.0526316" d="M355.953 258.166C355.953 258.166 189.755 173.268 211.38 109.574C229.55 56.0589 381.537 59.9961 384.374 5.52895C386.933 -43.5991 253.574 -100.655 253.574 -100.655" stroke="white"/>
<path opacity="0.105263" d="M344.946 268.431C344.946 268.431 190.174 177.412 220.039 114.605C245.13 61.8344 396.26 71.458 406.178 17.1625C415.125 -31.8106 289.493 -93.7917 289.493 -93.7917" stroke="white"/>
<path opacity="0.157895" d="M332.572 278.402C332.572 278.402 189.998 181.709 227.977 120.098C259.887 68.3336 409.43 83.5982 426.399 29.7428C441.704 -18.8334 324.423 -85.435 324.423 -85.435" stroke="white"/>
<path opacity="0.210526" d="M318.872 288.02C318.872 288.02 189.207 186.129 235.138 126.021C273.728 75.5188 420.962 96.3519 444.916 43.2035C466.521 -4.73512 358.173 -75.6302 358.173 -75.6302" stroke="white"/>
<path opacity="0.263158" d="M303.895 297.243C303.895 297.243 187.788 190.655 241.466 132.349C286.565 83.3608 430.78 109.663 461.618 57.4855C489.434 10.4227 390.555 -64.4172 390.555 -64.4172" stroke="white"/>
<path opacity="0.315789" d="M287.696 306.019C287.696 306.019 185.727 195.26 246.91 139.047C298.315 91.8171 438.815 123.463 476.403 72.5162C510.306 26.5636 421.39 -51.8532 421.39 -51.8532" stroke="white"/>
<path opacity="0.368421" d="M270.334 314.305C270.334 314.305 183.016 199.92 251.424 146.081C308.9 100.846 445.006 137.684 489.175 88.2226C529.015 43.6098 450.503 -37.9979 450.503 -37.9979" stroke="white"/>
<path opacity="0.421053" d="M251.875 322.057C251.875 322.057 179.648 204.611 254.966 153.418C318.247 110.405 449.302 152.258 499.852 104.53C545.447 61.4801 477.729 -22.9168 477.729 -22.9168" stroke="white"/>
<path opacity="0.473684" d="M232.393 329.238C232.393 329.238 175.621 209.31 257.497 161.02C326.288 120.447 451.659 167.114 508.357 121.359C559.497 80.089 502.912 -6.68138 502.912 -6.68138" stroke="white"/>
<path opacity="0.526316" d="M211.962 335.809C211.962 335.809 170.935 213.992 258.985 168.85C332.964 130.922 452.046 182.179 514.626 138.628C571.072 99.3455 525.904 10.6292 525.904 10.6292" stroke="white"/>
<path opacity="0.578947" d="M190.664 341.734C190.664 341.734 165.593 218.63 259.402 176.866C338.22 141.777 450.436 197.378 518.606 156.25C580.094 119.155 546.569 28.9298 546.569 28.9298" stroke="white"/>
<path opacity="0.631579" d="M168.584 346.986C168.584 346.986 159.602 223.203 258.725 185.032C342.008 152.961 446.817 212.638 520.254 174.144C586.493 139.424 564.78 48.1347 564.78 48.1347" stroke="white"/>
<path opacity="0.684211" d="M145.813 351.533C145.813 351.533 152.971 227.683 256.937 193.301C344.288 164.414 441.181 227.881 519.537 192.217C590.212 160.049 580.423 68.1465 580.423 68.1465" stroke="white"/>
<path opacity="0.736842" d="M122.441 355.354C122.441 355.354 145.713 232.049 254.024 201.636C345.026 176.084 433.536 243.035 516.436 210.383C591.21 180.933 593.397 88.8701 593.397 88.8701" stroke="white"/>
<path opacity="0.789474" d="M98.5646 358.425C98.5646 358.425 137.843 236.277 249.98 209.993C344.196 187.909 423.894 258.021 510.941 228.552C589.456 201.97 603.612 110.202 603.612 110.202" stroke="white"/>
<path opacity="0.842105" d="M74.2818 360.732C74.2818 360.732 129.381 240.345 244.804 218.329C341.78 199.832 412.28 272.769 503.055 246.634C584.932 223.061 610.992 132.04 610.992 132.04" stroke="white"/>
<path opacity="0.894737" d="M49.6924 362.259C49.6924 362.259 120.348 244.23 238.499 226.602C337.767 211.792 398.727 287.202 492.792 264.539C577.636 244.098 615.475 154.274 615.475 154.274" stroke="white"/>
<path opacity="0.947368" d="M24.8976 362.999C24.8976 362.999 110.768 247.913 231.075 234.771C332.154 223.73 383.278 301.25 480.177 282.18C567.578 264.979 617.013 176.796 617.013 176.796" stroke="white"/>
<path d="M0 362.946C0 362.946 100.669 251.374 222.546 242.796C324.946 235.588 365.985 314.845 465.247 299.47C554.779 285.603 615.571 199.496 615.571 199.496" stroke="white"/>
</g>
</svg>
