<svg width="200" height="269" viewBox="0 0 200 269" fill="none" xmlns="http://www.w3.org/2000/svg">
<path opacity="0.5" fill-rule="evenodd" clip-rule="evenodd" d="M1.7439 8.73615C0 12.1587 0 16.6392 0 25.6V269H200V25.6C200 16.6392 200 12.1587 198.256 8.73615C196.722 5.72556 194.274 3.27787 191.264 1.7439C187.841 0 183.361 0 174.4 0H25.6C16.6392 0 12.1587 0 8.73615 1.7439C5.72556 3.27787 3.27787 5.72556 1.7439 8.73615ZM21.5 86C20.1193 86 19 87.1193 19 88.5C19 89.8807 20.1193 91 21.5 91H96.5C97.8807 91 99 89.8807 99 88.5C99 87.1193 97.8807 86 96.5 86H21.5ZM19 216.5C19 215.119 20.1193 214 21.5 214H96.5C97.8807 214 99 215.119 99 216.5C99 217.881 97.8807 219 96.5 219H21.5C20.1193 219 19 217.881 19 216.5ZM21.5 150C20.1193 150 19 151.119 19 152.5C19 153.881 20.1193 155 21.5 155H62.5C63.8807 155 65 153.881 65 152.5C65 151.119 63.8807 150 62.5 150H21.5ZM19 101.5C19 100.119 20.1193 99 21.5 99H184.5C185.881 99 187 100.119 187 101.5C187 102.881 185.881 104 184.5 104H21.5C20.1193 104 19 102.881 19 101.5ZM21.5 227C20.1193 227 19 228.119 19 229.5C19 230.881 20.1193 232 21.5 232H184.5C185.881 232 187 230.881 187 229.5C187 228.119 185.881 227 184.5 227H21.5ZM19 165.5C19 164.119 20.1193 163 21.5 163H96.5C97.8807 163 99 164.119 99 165.5C99 166.881 97.8807 168 96.5 168H21.5C20.1193 168 19 166.881 19 165.5ZM109.5 163C108.119 163 107 164.119 107 165.5C107 166.881 108.119 168 109.5 168H184.5C185.881 168 187 166.881 187 165.5C187 164.119 185.881 163 184.5 163H109.5ZM19 114.5C19 113.119 20.1193 112 21.5 112H184.5C185.881 112 187 113.119 187 114.5C187 115.881 185.881 117 184.5 117H21.5C20.1193 117 19 115.881 19 114.5ZM21.5 240C20.1193 240 19 241.119 19 242.5C19 243.881 20.1193 245 21.5 245H184.5C185.881 245 187 243.881 187 242.5C187 241.119 185.881 240 184.5 240H21.5ZM19 178.5C19 177.119 20.1193 176 21.5 176H96.5C97.8807 176 99 177.119 99 178.5C99 179.881 97.8807 181 96.5 181H21.5C20.1193 181 19 179.881 19 178.5ZM109.5 176C108.119 176 107 177.119 107 178.5C107 179.881 108.119 181 109.5 181H184.5C185.881 181 187 179.881 187 178.5C187 177.119 185.881 176 184.5 176H109.5ZM19 127.5C19 126.119 20.1193 125 21.5 125H184.5C185.881 125 187 126.119 187 127.5C187 128.881 185.881 130 184.5 130H21.5C20.1193 130 19 128.881 19 127.5ZM21.5 253C20.1193 253 19 254.119 19 255.5C19 256.881 20.1193 258 21.5 258H184.5C185.881 258 187 256.881 187 255.5C187 254.119 185.881 253 184.5 253H21.5ZM19 191.5C19 190.119 20.1193 189 21.5 189H96.5C97.8807 189 99 190.119 99 191.5C99 192.881 97.8807 194 96.5 194H21.5C20.1193 194 19 192.881 19 191.5ZM109.5 189C108.119 189 107 190.119 107 191.5C107 192.881 108.119 194 109.5 194H184.5C185.881 194 187 192.881 187 191.5C187 190.119 185.881 189 184.5 189H109.5Z" fill="url(#paint0_linear_1393_168)"/>
<defs>
<linearGradient id="paint0_linear_1393_168" x1="100" y1="0" x2="100" y2="269" gradientUnits="userSpaceOnUse">
<stop stop-color="#2F5565"/>
<stop offset="1" stop-color="#2F5565" stop-opacity="0"/>
</linearGradient>
</defs>
</svg>
