<svg width="244" height="216" viewBox="0 0 244 216" fill="none" xmlns="http://www.w3.org/2000/svg">
<path d="M0 0.498848C0 0.997695 0.00064 0.997695 0.00064 0.997695H114.894C129.422 0.997695 144.693 7.64533 159.474 17.7223C174.241 27.7898 188.441 41.2253 200.817 54.6794C213.19 68.1306 223.727 81.5842 231.17 91.6765C234.892 96.7222 237.84 100.927 239.856 103.869C240.006 104.088 240.151 104.3 240.291 104.504C240.088 104.307 239.873 104.099 239.646 103.881L239.475 103.716L239.263 103.512C239.162 103.415 239.059 103.317 238.954 103.216C236.986 100.83 234.306 97.6512 231.023 93.9231C223.6 85.4955 213.09 74.2565 200.741 63.0153C188.396 51.7764 174.199 40.5224 159.402 32.0749C144.614 23.6324 129.167 17.9585 114.333 17.9585H0.000636878C0.000636878 17.9585 0 17.9585 0 18.4574C0 18.9562 0.000636878 18.9562 0.000636878 18.9562H114.333C128.823 18.9562 144.032 24.5064 158.735 32.9C173.428 41.2886 187.556 52.4828 199.869 63.6919C212.179 74.8989 222.662 86.108 230.068 94.5165C230.788 95.3345 231.479 96.1259 232.14 96.8882C231.762 96.5463 231.375 96.1977 230.978 95.8428C223.554 89.1926 213.041 80.3245 200.691 71.4549C188.342 62.5866 174.145 53.708 159.349 47.0444C144.559 40.3832 129.131 35.917 114.333 35.917H0.000636878C0.000636878 35.917 0 35.917 0 36.4159C0 36.9147 0.000636878 36.9147 0.000636878 36.9147H114.333C128.859 36.9147 144.088 41.3031 158.788 47.9237C173.483 54.5419 187.609 63.3724 199.919 72.2132C212.227 81.0527 222.708 89.8936 230.112 96.5253C232.654 98.802 234.833 100.818 236.598 102.484C234.987 101.357 233.082 100.049 230.915 98.5998C223.489 93.6346 212.975 87.0141 200.624 80.3928C175.949 67.1641 143.836 53.8755 114.333 53.8755H0.000636878C0.000636878 53.8755 0 53.8755 0 54.3744C0 54.8732 0.000636878 54.8732 0.000636878 54.8732H114.333C143.477 54.8732 175.344 68.0236 199.986 81.2338C212.293 87.832 222.773 94.4309 230.175 99.3804C233.876 101.855 236.807 103.917 238.812 105.359C239.218 105.651 239.586 105.918 239.915 106.157L240.125 106.418L240.345 106.692C240.084 106.563 239.801 106.424 239.497 106.275C237.483 105.291 234.541 103.885 230.828 102.199C223.402 98.8266 212.89 94.3303 200.541 89.8337C175.86 80.8462 143.78 71.834 114.333 71.834H0.000636878C0.000636878 71.834 0 71.834 0 72.3329C0 72.8317 0.000636878 72.8317 0.000636878 72.8317H114.333C143.534 72.8317 175.433 81.7781 200.069 90.7491C212.379 95.2318 222.86 99.7147 230.263 103.077C233.068 104.351 235.431 105.464 237.283 106.354C235.501 105.88 233.295 105.305 230.716 104.654C223.293 102.782 212.786 100.285 200.444 97.788C175.768 92.7959 143.726 87.7972 114.333 87.7972H0.000636878C0.000636878 87.7972 0 87.7972 0 88.296C0 88.7949 0.000636878 88.7949 0.000636878 88.7949H114.333C143.588 88.7949 175.525 93.773 200.166 98.7579C212.483 101.25 222.968 103.741 230.374 105.61C233.3 106.348 235.745 106.989 237.632 107.494C235.773 107.395 233.399 107.271 230.581 107.128C223.165 106.754 212.666 106.255 200.334 105.756C175.671 104.758 143.671 103.76 114.333 103.76H0.000636878C0.000636878 103.76 0 103.76 0 104.259C0 104.758 0.000636878 104.758 0.000636878 104.758H114.333C143.643 104.758 175.622 105.755 200.276 106.753C211.283 107.198 220.829 107.643 228.024 108C220.829 108.357 211.283 108.802 200.276 109.247C175.622 110.245 143.643 111.242 114.333 111.242H0.000636878C0.000636878 111.242 0 111.242 0 111.741C0 112.24 0.000636878 112.24 0.000636878 112.24H114.333C143.671 112.24 175.671 111.242 200.334 110.244C212.666 109.745 223.165 109.246 230.581 108.872C233.399 108.729 235.773 108.605 237.632 108.506C235.745 109.011 233.3 109.652 230.374 110.39C222.968 112.259 212.483 114.75 200.166 117.242C175.525 122.227 143.588 127.205 114.333 127.205H0.000636878C0.000636878 127.205 0 127.205 0 127.704C0 128.203 0.000636878 128.203 0.000636878 128.203H114.333C143.726 128.203 175.768 123.204 200.444 118.212C212.786 115.715 223.293 113.218 230.716 111.346C233.295 110.695 235.501 110.12 237.283 109.646C235.431 110.536 233.068 111.649 230.263 112.923C222.86 116.285 212.379 120.768 200.069 125.251C175.433 134.222 143.534 143.168 114.333 143.168H0.000636878C0.000636878 143.168 0 143.168 0 143.667C0 144.166 0.000636878 144.166 0.000636878 144.166H114.333C143.78 144.166 175.86 135.154 200.541 126.166C212.89 121.67 223.402 117.173 230.828 113.801C234.541 112.115 237.483 110.709 239.497 109.725C239.801 109.576 240.084 109.437 240.345 109.308L240.125 109.582L239.915 109.843C239.586 110.082 239.218 110.349 238.812 110.641C236.807 112.083 233.876 114.145 230.175 116.62C222.773 121.569 212.293 128.168 199.986 134.766C175.344 147.976 143.477 161.127 114.333 161.127H0.000636878C0.000636878 161.127 0 161.127 0 161.626C0 162.124 0.000636878 162.124 0.000636878 162.124H114.333C143.836 162.124 175.949 148.836 200.624 135.607C212.975 128.986 223.489 122.365 230.915 117.4C233.082 115.951 234.987 114.643 236.598 113.516C234.833 115.182 232.654 117.198 230.112 119.475C222.708 126.106 212.227 134.947 199.919 143.787C187.609 152.628 173.483 161.458 158.788 168.076C144.088 174.697 128.859 179.085 114.333 179.085H0.000636878C0.000636878 179.085 0 179.085 0 179.584C0 180.083 0.000636878 180.083 0.000636878 180.083H114.333C129.131 180.083 144.559 175.617 159.349 168.956C174.145 162.292 188.342 153.413 200.691 144.545C213.041 135.675 223.554 126.807 230.978 120.157C231.375 119.802 231.762 119.454 232.14 119.112C231.479 119.874 230.788 120.666 230.068 121.483C222.662 129.892 212.179 141.101 199.869 152.308C187.556 163.517 173.428 174.711 158.735 183.1C144.032 191.494 128.823 197.044 114.333 197.044H0.000636878C0.000636878 197.044 0 197.044 0 197.543C0 198.041 0.000636878 198.041 0.000636878 198.041H114.333C129.167 198.041 144.614 192.368 159.402 183.925C174.199 175.478 188.396 164.224 200.741 152.985C213.09 141.744 223.6 130.505 231.023 122.077C234.306 118.349 236.986 115.17 238.954 112.784C239.059 112.683 239.162 112.585 239.263 112.488L239.475 112.284L239.646 112.119C239.873 111.901 240.088 111.693 240.291 111.496C240.151 111.7 240.006 111.912 239.856 112.131C237.84 115.073 234.892 119.278 231.17 124.323C223.727 134.416 213.19 147.869 200.817 161.321C188.441 174.775 174.241 188.21 159.474 198.278C144.693 208.355 129.422 215.002 114.894 215.002H0.00064C0.00064 215.002 0 215.002 0 215.501C0 216 0.00064 216 0.00064 216H114.894C129.832 216 145.369 209.179 160.222 199.052C175.09 188.917 189.353 175.414 201.757 161.931C214.163 148.444 224.723 134.96 232.18 124.849C235.909 119.793 238.863 115.579 240.886 112.629C241.897 111.154 242.675 109.994 243.201 109.203C243.464 108.808 243.664 108.504 243.798 108.3C243.865 108.197 243.915 108.12 243.949 108.067L243.98 108.02C244 108.011 244 108.01 244 108.01L243.998 108.007L243.993 108L243.998 107.993L244 107.99C244 107.99 244 107.989 243.98 107.98L243.949 107.933C243.915 107.88 243.865 107.803 243.798 107.7C243.664 107.496 243.464 107.192 243.201 106.797C242.675 106.006 241.897 104.846 240.886 103.371C238.863 100.421 235.909 96.2071 232.18 91.1511C224.723 81.0401 214.163 67.556 201.757 54.0694C189.353 40.5857 175.09 27.0834 160.222 16.9476C145.369 6.82125 129.832 0 114.894 0H0.00064C0.00064 0 0 0 0 0.498848Z" fill="url(#paint0_linear_1395_186)"/>
<defs>
<linearGradient id="paint0_linear_1395_186" x1="244" y1="108" x2="49" y2="108" gradientUnits="userSpaceOnUse">
<stop stop-color="#92CCE5" stop-opacity="0.8"/>
<stop offset="1" stop-color="#92CCE5" stop-opacity="0"/>
</linearGradient>
</defs>
</svg>
