<svg width="244" height="216" viewBox="0 0 244 216" fill="none" xmlns="http://www.w3.org/2000/svg">
<path d="M244 0.498848C244 0.997695 243.999 0.997695 243.999 0.997695H129.106C114.578 0.997695 99.3072 7.64533 84.526 17.7223C69.7586 27.7898 55.5591 41.2253 43.183 54.6794C30.8096 68.1306 20.2732 81.5842 12.8295 91.6765C9.10805 96.7222 6.16039 100.927 4.14351 103.869C3.99352 104.088 3.84865 104.3 3.70901 104.504C3.91203 104.307 4.12701 104.099 4.35376 103.881L4.52483 103.716L4.73735 103.512C4.83804 103.415 4.9408 103.317 5.04558 103.216C7.01393 100.83 9.69392 97.6512 12.9774 93.9231C20.4001 85.4955 30.9105 74.2565 43.2586 63.0153C55.6042 51.7764 69.8009 40.5224 84.5977 32.0749C99.3857 23.6324 114.833 17.9585 129.667 17.9585H243.999C243.999 17.9585 244 17.9585 244 18.4574C244 18.9562 243.999 18.9562 243.999 18.9562H129.667C115.177 18.9562 99.9678 24.5064 85.2653 32.9C70.5718 41.2886 56.4444 52.4828 44.1314 63.6919C31.8208 74.8989 21.3381 86.108 13.9322 94.5165C13.2118 95.3345 12.5205 96.1259 11.8596 96.8882C12.238 96.5463 12.6255 96.1977 13.0217 95.8428C20.4462 89.1926 30.9588 80.3245 43.3091 71.4549C55.6576 62.5866 69.8554 53.708 84.6509 47.0444C99.4412 40.3832 114.869 35.917 129.667 35.917H243.999C243.999 35.917 244 35.917 244 36.4159C244 36.9147 243.999 36.9147 243.999 36.9147H129.667C115.141 36.9147 99.9122 41.3031 85.2121 47.9237C70.5173 54.5419 56.391 63.3724 44.0809 72.2132C31.7726 81.0527 21.292 89.8936 13.888 96.5253C11.3461 98.802 9.1673 100.818 7.40208 102.484C9.01292 101.357 10.9176 100.049 13.085 98.5998C20.511 93.6346 31.0246 87.0141 43.3755 80.3928C68.0513 67.1641 100.164 53.8755 129.667 53.8755H243.999C243.999 53.8755 244 53.8755 244 54.3744C244 54.8732 243.999 54.8732 243.999 54.8732H129.667C100.523 54.8732 68.6559 68.0236 44.0145 81.2338C31.7067 87.832 21.2272 94.4309 13.8247 99.3804C10.1237 101.855 7.19269 103.917 5.18771 105.359C4.78189 105.651 4.414 105.918 4.08536 106.157L3.87521 106.418L3.6553 106.692C3.91637 106.563 4.19907 106.424 4.50282 106.275C6.51738 105.291 9.45934 103.885 13.1724 102.199C20.5981 98.8266 31.1104 94.3303 43.4588 89.8337C68.1402 80.8462 100.22 71.834 129.667 71.834H243.999C243.999 71.834 244 71.834 244 72.3329C244 72.8317 243.999 72.8317 243.999 72.8317H129.667C100.466 72.8317 68.567 81.7781 43.9312 90.7491C31.621 95.2318 21.14 99.7147 13.7373 103.077C10.9321 104.351 8.56931 105.464 6.71678 106.354C8.49875 105.88 10.7053 105.305 13.284 104.654C20.7066 102.782 31.2139 100.285 43.5559 97.788C68.2322 92.7959 100.274 87.7972 129.667 87.7972H243.999C243.999 87.7972 244 87.7972 244 88.296C244 88.7949 243.999 88.7949 243.999 88.7949H129.667C100.412 88.7949 68.475 93.773 43.834 98.7579C31.5174 101.25 21.0316 103.741 13.6257 105.61C10.6997 106.348 8.25476 106.989 6.36775 107.494C8.22722 107.395 10.6006 107.271 13.4192 107.128C20.8354 106.754 31.3343 106.255 43.6664 105.756C68.3291 104.758 100.329 103.76 129.667 103.76H243.999C243.999 103.76 244 103.76 244 104.259C244 104.758 243.999 104.758 243.999 104.758H129.667C100.357 104.758 68.3781 105.755 43.7236 106.753C32.717 107.198 23.1714 107.643 15.9763 108C23.1714 108.357 32.717 108.802 43.7236 109.247C68.3781 110.245 100.357 111.242 129.667 111.242H243.999C243.999 111.242 244 111.242 244 111.741C244 112.24 243.999 112.24 243.999 112.24H129.667C100.329 112.24 68.3291 111.242 43.6664 110.244C31.3343 109.745 20.8354 109.246 13.4192 108.872C10.6006 108.729 8.22722 108.605 6.36775 108.506C8.25476 109.011 10.6997 109.652 13.6257 110.39C21.0316 112.259 31.5174 114.75 43.834 117.242C68.475 122.227 100.412 127.205 129.667 127.205H243.999C243.999 127.205 244 127.205 244 127.704C244 128.203 243.999 128.203 243.999 128.203H129.667C100.274 128.203 68.2322 123.204 43.5559 118.212C31.2139 115.715 20.7066 113.218 13.284 111.346C10.7053 110.695 8.49875 110.12 6.71678 109.646C8.56931 110.536 10.9321 111.649 13.7373 112.923C21.14 116.285 31.621 120.768 43.9312 125.251C68.567 134.222 100.466 143.168 129.667 143.168H243.999C243.999 143.168 244 143.168 244 143.667C244 144.166 243.999 144.166 243.999 144.166H129.667C100.22 144.166 68.1402 135.154 43.4588 126.166C31.1104 121.67 20.5981 117.173 13.1724 113.801C9.45934 112.115 6.51738 110.709 4.50282 109.725C4.19907 109.576 3.91637 109.437 3.6553 109.308L3.87521 109.582L4.08536 109.843C4.414 110.082 4.78189 110.349 5.18771 110.641C7.19269 112.083 10.1237 114.145 13.8247 116.62C21.2272 121.569 31.7067 128.168 44.0145 134.766C68.6559 147.976 100.523 161.127 129.667 161.127H243.999C243.999 161.127 244 161.127 244 161.626C244 162.124 243.999 162.124 243.999 162.124H129.667C100.164 162.124 68.0513 148.836 43.3755 135.607C31.0246 128.986 20.511 122.365 13.085 117.4C10.9176 115.951 9.01292 114.643 7.40208 113.516C9.1673 115.182 11.3461 117.198 13.888 119.475C21.292 126.106 31.7726 134.947 44.0809 143.787C56.391 152.628 70.5173 161.458 85.2121 168.076C99.9122 174.697 115.141 179.085 129.667 179.085H243.999C243.999 179.085 244 179.085 244 179.584C244 180.083 243.999 180.083 243.999 180.083H129.667C114.869 180.083 99.4412 175.617 84.6509 168.956C69.8554 162.292 55.6576 153.413 43.3091 144.545C30.9588 135.675 20.4462 126.807 13.0217 120.157C12.6255 119.802 12.238 119.454 11.8596 119.112C12.5205 119.874 13.2118 120.666 13.9322 121.483C21.3381 129.892 31.8208 141.101 44.1314 152.308C56.4444 163.517 70.5718 174.711 85.2653 183.1C99.9678 191.494 115.177 197.044 129.667 197.044H243.999C243.999 197.044 244 197.044 244 197.543C244 198.041 243.999 198.041 243.999 198.041H129.667C114.833 198.041 99.3857 192.368 84.5977 183.925C69.8009 175.478 55.6042 164.224 43.2586 152.985C30.9105 141.744 20.4001 130.505 12.9774 122.077C9.69392 118.349 7.01393 115.17 5.04558 112.784C4.9408 112.683 4.83804 112.585 4.73735 112.488L4.52483 112.284L4.35376 112.119C4.12701 111.901 3.91203 111.693 3.70901 111.496C3.84865 111.7 3.99352 111.912 4.14351 112.131C6.16039 115.073 9.10805 119.278 12.8295 124.323C20.2732 134.416 30.8096 147.869 43.183 161.321C55.5591 174.775 69.7586 188.21 84.526 198.278C99.3072 208.355 114.578 215.002 129.106 215.002H243.999C243.999 215.002 244 215.002 244 215.501C244 216 243.999 216 243.999 216H129.106C114.168 216 98.6313 209.179 83.7776 199.052C68.91 188.917 54.6465 175.414 42.2432 161.931C29.8371 148.444 19.2774 134.96 11.8199 124.849C8.09082 119.793 5.13661 115.579 3.11424 112.629C2.10306 111.154 1.32478 109.994 0.799057 109.203C0.536209 108.808 0.336472 108.504 0.202332 108.3C0.135254 108.197 0.0845795 108.12 0.0505981 108.067L0.0197601 108.02C-9.15527e-05 108.011 0 108.01 0 108.01L0.00248718 108.007L0.00679016 108L0.00248718 107.993L0 107.99C0 107.99 -9.15527e-05 107.989 0.0197601 107.98L0.0505981 107.933C0.0845795 107.88 0.135254 107.803 0.202332 107.7C0.336472 107.496 0.536209 107.192 0.799057 106.797C1.32478 106.006 2.10306 104.846 3.11424 103.371C5.13661 100.421 8.09082 96.2071 11.8199 91.1511C19.2774 81.0401 29.8371 67.556 42.2432 54.0694C54.6465 40.5857 68.91 27.0834 83.7776 16.9476C98.6313 6.82125 114.168 0 129.106 0H243.999C243.999 0 244 0 244 0.498848Z" fill="url(#paint0_linear_1395_187)"/>
<defs>
<linearGradient id="paint0_linear_1395_187" x1="-1.55533e-05" y1="108" x2="203" y2="114" gradientUnits="userSpaceOnUse">
<stop stop-color="#92CCE5" stop-opacity="0.8"/>
<stop offset="1" stop-color="#92CCE5" stop-opacity="0"/>
</linearGradient>
</defs>
</svg>
