<svg width="540" height="363" viewBox="0 0 540 363" fill="none" xmlns="http://www.w3.org/2000/svg">
<g style="mix-blend-mode:soft-light">
<path d="M291.478 -4.49997H332.488C332.299 7.13658 329.916 18.6378 325.459 29.3983C320.81 40.6209 313.997 50.818 305.407 59.4074C296.818 67.9968 286.621 74.8103 275.398 79.4589C264.176 84.1074 252.147 86.5 240 86.5C227.853 86.5 215.824 84.1074 204.602 79.4589C193.379 74.8103 183.182 67.9968 174.593 59.4074C166.003 50.818 159.19 40.6209 154.541 29.3982C150.084 18.6378 147.701 7.13657 147.512 -4.49998L188.522 -4.49997C188.704 1.75168 190.024 7.92228 192.42 13.7082C195.008 19.9565 198.802 25.6338 203.584 30.416C208.366 35.1982 214.044 38.9917 220.292 41.5798C226.54 44.1679 233.237 45.5 240 45.5C246.763 45.5 253.46 44.1679 259.708 41.5798C265.956 38.9917 271.634 35.1982 276.416 30.416C281.198 25.6338 284.992 19.9565 287.58 13.7082C289.976 7.92229 291.296 1.75168 291.478 -4.49997ZM607.497 -4.49997C607.302 43.2508 597.803 90.511 579.526 134.636C561.057 179.223 533.987 219.736 499.862 253.862C465.736 287.987 425.223 315.057 380.636 333.526C336.049 351.994 288.261 361.5 240 361.5C191.739 361.5 143.951 351.994 99.3638 333.526C54.7767 315.057 14.2638 287.987 -19.8618 253.862C-53.9873 219.736 -81.0571 179.223 -99.5257 134.636C-117.803 90.511 -127.302 43.2508 -127.497 -4.5L-51.4961 -4.49999C-51.3018 33.2702 -43.7688 70.6478 -29.3109 105.552C-14.6617 140.919 6.81009 173.053 33.8784 200.122C60.9466 227.19 93.0814 248.662 128.448 263.311C163.814 277.96 201.72 285.5 240 285.5C278.28 285.5 316.186 277.96 351.552 263.311C386.919 248.662 419.053 227.19 446.122 200.122C473.19 173.053 494.662 140.919 509.311 105.552C523.769 70.6478 531.302 33.2703 531.496 -4.49997H607.497ZM528.496 -4.49997C528.302 32.8763 520.846 69.8638 506.539 104.404C492.041 139.407 470.79 171.211 444 198C417.211 224.79 385.407 246.041 350.404 260.539C315.402 275.038 277.886 282.5 240 282.5C202.114 282.5 164.598 275.038 129.596 260.539C94.5934 246.041 62.7894 224.79 35.9997 198C9.20999 171.211 -12.0408 139.407 -26.5393 104.404C-40.8464 69.8638 -48.3018 32.8763 -48.4961 -4.49999L24.5052 -4.49999C24.6986 23.2897 30.2655 50.7847 40.904 76.4683C51.7338 102.614 67.6075 126.371 87.6185 146.382C107.63 166.393 131.386 182.266 157.532 193.096C183.677 203.926 211.7 209.5 240 209.5C268.3 209.5 296.323 203.926 322.468 193.096C348.614 182.266 372.371 166.393 392.382 146.382C412.393 126.371 428.266 102.614 439.096 76.4683C449.734 50.7847 455.301 23.2897 455.495 -4.49997H528.496ZM452.495 -4.49997C452.301 22.8957 446.812 50.0006 436.324 75.3203C425.645 101.102 409.993 124.528 390.26 144.26C370.528 163.993 347.102 179.645 321.32 190.324C295.539 201.004 267.906 206.5 240 206.5C212.094 206.5 184.461 201.004 158.68 190.324C132.898 179.645 109.472 163.993 89.7398 144.26C70.0074 124.528 54.3547 101.102 43.6756 75.3202C33.1879 50.0006 27.6987 22.8957 27.5053 -4.49999L97.5079 -4.49998C97.6995 13.703 101.377 31.7056 108.347 48.5324C115.508 65.8213 126.005 81.5304 139.237 94.7627C152.47 107.995 168.179 118.492 185.468 125.653C202.757 132.814 221.287 136.5 240 136.5C258.713 136.5 277.243 132.814 294.532 125.653C311.821 118.492 327.53 107.995 340.763 94.7627C353.995 81.5304 364.492 65.8213 371.653 48.5324C378.623 31.7056 382.3 13.703 382.492 -4.49997H452.495ZM379.492 -4.49997C379.3 13.309 375.7 30.9215 368.881 47.3844C361.871 64.3093 351.595 79.6877 338.641 92.6414C325.688 105.595 310.309 115.871 293.384 122.881C276.459 129.892 258.319 133.5 240 133.5C221.681 133.5 203.541 129.892 186.616 122.881C169.691 115.871 154.312 105.595 141.359 92.6414C128.405 79.6876 118.129 64.3093 111.119 47.3844C104.3 30.9215 100.7 13.309 100.508 -4.49998L144.512 -4.49998C144.701 7.53057 147.162 19.4218 151.77 30.5463C156.569 42.1329 163.603 52.6607 172.471 61.5287C181.339 70.3967 191.867 77.4312 203.454 82.2305C215.04 87.0299 227.459 89.5 240 89.5C252.541 89.5 264.96 87.0299 276.546 82.2305C288.133 77.4312 298.661 70.3967 307.529 61.5287C316.397 52.6607 323.431 42.1329 328.23 30.5463C332.838 19.4218 335.299 7.53057 335.488 -4.49997H379.492ZM191.523 -4.49997L240 -4.49997H288.477C288.296 1.35762 287.054 7.13824 284.808 12.5602C282.371 18.4445 278.798 23.7911 274.295 28.2947C269.791 32.7984 264.444 36.3708 258.56 38.8082C252.676 41.2455 246.369 42.5 240 42.5C233.631 42.5 227.324 41.2455 221.44 38.8082C215.556 36.3708 210.209 32.7984 205.705 28.2947C201.202 23.7911 197.629 18.4445 195.192 12.5602C192.946 7.13823 191.704 1.35761 191.523 -4.49997Z" stroke="white" stroke-width="3"/>
</g>
</svg>
